<svg width="226" height="226" viewBox="0 0 226 226" fill="none" xmlns="http://www.w3.org/2000/svg">
<path d="M220.633 10.8056H209.827V139.908H220.633V10.8056Z" fill="#000001"/>
<path d="M16.1026 215.265V204.53H5.36755V226H220.633V204.53H209.827V215.265H16.1026Z" fill="#000001"/>
<path d="M209.827 193.724H199.092V204.53H209.827V193.724Z" fill="#000001"/>
<path d="M199.092 182.989H188.357V193.724H199.092V182.989Z" fill="#000001"/>
<path d="M48.4488 161.449V172.184H177.551V161.449H145.276V150.714H209.827V139.908H16.1025V150.714H80.7244V161.449H48.4488ZM91.4594 150.714H134.541V161.449H91.4594V150.714Z" fill="#000001"/>
<path d="M188.357 172.184H177.551V182.989H188.357V172.184Z" fill="#000001"/>
<path d="M199.092 21.5406H26.9082V129.173H199.092V21.5406ZM188.357 118.368H37.6432V32.2757H188.357V118.368Z" fill="#000001"/>
<path d="M177.551 193.724H166.816V204.53H177.551V193.724Z" fill="#000001"/>
<path d="M166.816 182.989H156.011V193.724H166.816V182.989Z" fill="#000001"/>
<path d="M134.541 75.3569H145.276V86.0919H156.011V75.3569H166.816V64.6219H177.551V53.8162H166.816V43.0812H156.011V53.8162H145.276V43.0812H134.541V53.8162H123.735V64.6219H134.541V75.3569Z" fill="#000001"/>
<path d="M145.276 193.724H134.541V204.53H145.276V193.724Z" fill="#000001"/>
<path d="M134.541 182.989H123.735V193.724H134.541V182.989Z" fill="#000001"/>
<path d="M113 193.724H102.194V204.53H113V193.724Z" fill="#000001"/>
<path d="M102.194 182.989H91.4595V193.724H102.194V182.989Z" fill="#000001"/>
<path d="M91.4594 193.724H80.7244V204.53H91.4594V193.724Z" fill="#000001"/>
<path d="M69.9188 182.989H59.1838V193.724H69.9188V182.989Z" fill="#000001"/>
<path d="M59.1839 193.724H48.4489V204.53H59.1839V193.724Z" fill="#000001"/>
<path d="M48.4488 172.184H37.6432V182.989H48.4488V172.184Z" fill="#000001"/>
<path d="M37.6432 182.989H26.9082V193.724H37.6432V182.989Z" fill="#000001"/>
<path d="M209.827 0H16.1025V10.8056H209.827V0Z" fill="#000001"/>
<path d="M26.9082 193.724H16.1025V204.53H26.9082V193.724Z" fill="#000001"/>
<path d="M16.1026 10.8056H5.36755V139.908H16.1026V10.8056Z" fill="#000001"/>
</svg>
