<svg width="265" height="265" viewBox="0 0 265 265" fill="none" xmlns="http://www.w3.org/2000/svg">
<g clip-path="url(#clip0_2308_1516)">
<path d="M246.036 164.052H233.448V227.155H246.036V164.052Z" fill="#000001"/>
<path d="M233.448 227.155H220.861V239.742H233.448V227.155Z" fill="#000001"/>
<path d="M233.448 151.464H220.861V164.052H233.448V151.464Z" fill="#000001"/>
<path d="M220.861 239.742H208.191V252.412H220.861V239.742Z" fill="#000001"/>
<path d="M220.861 138.794H208.191V151.464H220.861V138.794Z" fill="#000001"/>
<path d="M208.191 252.412H145.088V265H208.191V252.412Z" fill="#000001"/>
<path d="M170.345 214.567H157.758V227.155H170.345V214.567Z" fill="#000001"/>
<path d="M157.758 50.5156V37.8453H170.345V126.206H132.5V151.464H145.088V138.794H208.191V126.206H183.016V50.5156H208.191V37.8453H220.861V25.2578H233.449V0H195.603V12.5875H183.016V25.2578H170.345V12.5875H157.758V0H94.6548V25.2578H107.242V37.8453H145.088V50.5156H157.758Z" fill="#000001"/>
<path d="M145.088 239.742H132.5V252.412H145.088V239.742Z" fill="#000001"/>
<path d="M145.088 176.639H132.5V214.567H145.088V176.639Z" fill="#000001"/>
<path d="M145.088 50.5156H132.5V63.1031H145.088V50.5156Z" fill="#000001"/>
<path d="M119.913 227.155V164.052H107.242V227.155H56.8094V239.742H132.5V227.155H119.913Z" fill="#000001"/>
<path d="M132.5 151.464H119.913V164.052H132.5V151.464Z" fill="#000001"/>
<path d="M132.5 113.536H119.913V126.206H132.5V113.536Z" fill="#000001"/>
<path d="M132.5 63.1031H119.913V75.6907H132.5V63.1031Z" fill="#000001"/>
<path d="M119.912 75.6906H107.242V88.3609H119.912V75.6906Z" fill="#000001"/>
<path d="M119.913 113.536V100.948H107.242V88.361H94.6548V100.948H56.8094V113.536H119.913Z" fill="#000001"/>
<path d="M69.3969 189.309H56.8094V201.897H69.3969V189.309Z" fill="#000001"/>
<path d="M56.8095 214.567H44.1392V227.155H56.8095V214.567Z" fill="#000001"/>
<path d="M56.8095 151.464H44.1392V189.309H56.8095V151.464Z" fill="#000001"/>
<path d="M56.8095 113.536H44.1392V126.206H56.8095V113.536Z" fill="#000001"/>
<path d="M44.1391 201.897H31.5516V214.567H44.1391V201.897Z" fill="#000001"/>
<path d="M44.1391 126.206H31.5516V138.794H44.1391V126.206Z" fill="#000001"/>
<path d="M31.5516 138.794H18.9641V201.897H31.5516V138.794Z" fill="#000001"/>
<path d="M240.036 164.052H227.448V227.155H240.036V164.052Z" fill="#000001"/>
<path d="M227.448 227.155H214.861V239.742H227.448V227.155Z" fill="#000001"/>
<path d="M227.448 151.464H214.861V164.052H227.448V151.464Z" fill="#000001"/>
<path d="M214.861 239.742H202.191V252.412H214.861V239.742Z" fill="#000001"/>
<path d="M214.861 138.794H202.191V151.464H214.861V138.794Z" fill="#000001"/>
<path d="M202.191 252.412H139.088V265H202.191V252.412Z" fill="#000001"/>
<path d="M164.345 214.567H151.758V227.155H164.345V214.567Z" fill="#000001"/>
<path d="M151.758 50.5156V37.8453H164.345V126.206H126.5V151.464H139.088V138.794H202.191V126.206H177.016V50.5156H202.191V37.8453H214.861V25.2578H227.449V0H189.603V12.5875H177.016V25.2578H164.345V12.5875H151.758V0H88.6548V25.2578H101.242V37.8453H139.088V50.5156H151.758Z" fill="#000001"/>
<path d="M139.088 239.742H126.5V252.412H139.088V239.742Z" fill="#000001"/>
<path d="M139.088 176.639H126.5V214.567H139.088V176.639Z" fill="#000001"/>
<path d="M139.088 50.5156H126.5V63.1031H139.088V50.5156Z" fill="#000001"/>
<path d="M113.913 227.155V164.052H101.242V227.155H50.8094V239.742H126.5V227.155H113.913Z" fill="#000001"/>
<path d="M126.5 151.464H113.913V164.052H126.5V151.464Z" fill="#000001"/>
<path d="M126.5 113.536H113.913V126.206H126.5V113.536Z" fill="#000001"/>
<path d="M126.5 63.1031H113.913V75.6907H126.5V63.1031Z" fill="#000001"/>
<path d="M113.912 75.6906H101.242V88.3609H113.912V75.6906Z" fill="#000001"/>
<path d="M113.913 113.536V100.948H101.242V88.361H88.6548V100.948H50.8094V113.536H113.913Z" fill="#000001"/>
<path d="M63.3969 189.309H50.8094V201.897H63.3969V189.309Z" fill="#000001"/>
<path d="M50.8095 214.567H38.1392V227.155H50.8095V214.567Z" fill="#000001"/>
<path d="M50.8095 151.464H38.1392V189.309H50.8095V151.464Z" fill="#000001"/>
<path d="M50.8095 113.536H38.1392V126.206H50.8095V113.536Z" fill="#000001"/>
<path d="M38.1391 201.897H25.5516V214.567H38.1391V201.897Z" fill="#000001"/>
<path d="M38.1391 126.206H25.5516V138.794H38.1391V126.206Z" fill="#000001"/>
<path d="M25.5516 138.794H12.9641V201.897H25.5516V138.794Z" fill="#000001"/>
<path d="M240.036 168.052H227.448V231.155H240.036V168.052Z" fill="#000001"/>
<path d="M227.448 231.155H214.861V243.742H227.448V231.155Z" fill="#000001"/>
<path d="M227.448 155.464H214.861V168.052H227.448V155.464Z" fill="#000001"/>
<path d="M214.861 243.742H202.191V256.412H214.861V243.742Z" fill="#000001"/>
<path d="M214.861 142.794H202.191V155.464H214.861V142.794Z" fill="#000001"/>
<path d="M202.191 256.412H139.088V269H202.191V256.412Z" fill="#000001"/>
<path d="M164.345 218.567H151.758V231.155H164.345V218.567Z" fill="#000001"/>
<path d="M151.758 54.5156V41.8453H164.345V130.206H126.5V155.464H139.088V142.794H202.191V130.206H177.016V54.5156H202.191V41.8453H214.861V29.2578H227.449V4H189.603V16.5875H177.016V29.2578H164.345V16.5875H151.758V4H88.6548V29.2578H101.242V41.8453H139.088V54.5156H151.758Z" fill="#000001"/>
<path d="M139.088 243.742H126.5V256.412H139.088V243.742Z" fill="#000001"/>
<path d="M139.088 180.639H126.5V218.567H139.088V180.639Z" fill="#000001"/>
<path d="M139.088 54.5156H126.5V67.1031H139.088V54.5156Z" fill="#000001"/>
<path d="M113.913 231.155V168.052H101.242V231.155H50.8094V243.742H126.5V231.155H113.913Z" fill="#000001"/>
<path d="M126.5 155.464H113.913V168.052H126.5V155.464Z" fill="#000001"/>
<path d="M126.5 117.536H113.913V130.206H126.5V117.536Z" fill="#000001"/>
<path d="M126.5 67.1031H113.913V79.6907H126.5V67.1031Z" fill="#000001"/>
<path d="M113.912 79.6906H101.242V92.3609H113.912V79.6906Z" fill="#000001"/>
<path d="M113.913 117.536V104.948H101.242V92.361H88.6548V104.948H50.8094V117.536H113.913Z" fill="#000001"/>
<path d="M63.3969 193.309H50.8094V205.897H63.3969V193.309Z" fill="#000001"/>
<path d="M50.8095 218.567H38.1392V231.155H50.8095V218.567Z" fill="#000001"/>
<path d="M50.8095 155.464H38.1392V193.309H50.8095V155.464Z" fill="#000001"/>
<path d="M50.8095 117.536H38.1392V130.206H50.8095V117.536Z" fill="#000001"/>
<path d="M38.1391 205.897H25.5516V218.567H38.1391V205.897Z" fill="#000001"/>
<path d="M38.1391 130.206H25.5516V142.794H38.1391V130.206Z" fill="#000001"/>
<path d="M25.5516 142.794H12.9641V205.897H25.5516V142.794Z" fill="#000001"/>
<path d="M246.036 168.052H233.448V231.155H246.036V168.052Z" fill="#000001"/>
<path d="M233.448 231.155H220.861V243.742H233.448V231.155Z" fill="#000001"/>
<path d="M233.448 155.464H220.861V168.052H233.448V155.464Z" fill="#000001"/>
<path d="M220.861 243.742H208.191V256.412H220.861V243.742Z" fill="#000001"/>
<path d="M220.861 142.794H208.191V155.464H220.861V142.794Z" fill="#000001"/>
<path d="M208.191 256.412H145.088V269H208.191V256.412Z" fill="#000001"/>
<path d="M170.345 218.567H157.758V231.155H170.345V218.567Z" fill="#000001"/>
<path d="M157.758 54.5156V41.8453H170.345V130.206H132.5V155.464H145.088V142.794H208.191V130.206H183.016V54.5156H208.191V41.8453H220.861V29.2578H233.449V4H195.603V16.5875H183.016V29.2578H170.345V16.5875H157.758V4H94.6548V29.2578H107.242V41.8453H145.088V54.5156H157.758Z" fill="#000001"/>
<path d="M145.088 243.742H132.5V256.412H145.088V243.742Z" fill="#000001"/>
<path d="M145.088 180.639H132.5V218.567H145.088V180.639Z" fill="#000001"/>
<path d="M145.088 54.5156H132.5V67.1031H145.088V54.5156Z" fill="#000001"/>
<path d="M119.913 231.155V168.052H107.242V231.155H56.8094V243.742H132.5V231.155H119.913Z" fill="#000001"/>
<path d="M132.5 155.464H119.913V168.052H132.5V155.464Z" fill="#000001"/>
<path d="M132.5 117.536H119.913V130.206H132.5V117.536Z" fill="#000001"/>
<path d="M132.5 67.1031H119.913V79.6907H132.5V67.1031Z" fill="#000001"/>
<path d="M119.912 79.6906H107.242V92.3609H119.912V79.6906Z" fill="#000001"/>
<path d="M119.913 117.536V104.948H107.242V92.361H94.6548V104.948H56.8094V117.536H119.913Z" fill="#000001"/>
<path d="M69.3969 193.309H56.8094V205.897H69.3969V193.309Z" fill="#000001"/>
<path d="M56.8095 218.567H44.1392V231.155H56.8095V218.567Z" fill="#000001"/>
<path d="M56.8095 155.464H44.1392V193.309H56.8095V155.464Z" fill="#000001"/>
<path d="M56.8095 117.536H44.1392V130.206H56.8095V117.536Z" fill="#000001"/>
<path d="M44.1391 205.897H31.5516V218.567H44.1391V205.897Z" fill="#000001"/>
<path d="M44.1391 130.206H31.5516V142.794H44.1391V130.206Z" fill="#000001"/>
<path d="M31.5516 142.794H18.9641V205.897H31.5516V142.794Z" fill="#000001"/>
</g>
<defs>
<clipPath id="clip0_2308_1516">
<rect width="265" height="265" fill="white"/>
</clipPath>
</defs>
</svg>
